<svg width="45" height="44" viewBox="0 0 45 44" fill="none" xmlns="http://www.w3.org/2000/svg">
<path d="M42.4045 8H34.6045V2C34.6045 0.9 33.7045 0 32.6045 0C31.5045 0 30.6045 0.9 30.6045 2V8H22.8045C21.6245 8 20.7045 9.02 20.8045 10.2L21.0445 12.62C28.4045 14.32 34.6045 19.54 34.6045 28L34.6445 44H38.0445C39.7245 44 41.1045 42.7 41.3045 41.06L44.3845 10.2C44.5045 9.02 43.5845 8 42.4045 8ZM28.6045 40H2.60449C1.50449 40 0.604492 40.9 0.604492 42C0.604492 43.1 1.50449 44 2.60449 44H28.6045C29.7045 44 30.6045 43.1 30.6045 42C30.6045 40.9 29.7045 40 28.6045 40ZM2.80449 28H28.4045C29.6445 28 30.6245 26.88 30.3845 25.68C29.0845 19.22 22.3445 15.98 15.6045 15.98C8.86449 15.98 2.14449 19.22 0.824492 25.68C0.584492 26.88 1.58449 28 2.80449 28ZM28.6045 32H2.60449C1.50449 32 0.604492 32.9 0.604492 34C0.604492 35.1 1.50449 36 2.60449 36H28.6045C29.7045 36 30.6045 35.1 30.6045 34C30.6045 32.9 29.7045 32 28.6045 32Z" fill="black"/>
</svg>
