<svg width="41" height="28" viewBox="0 0 41 28" fill="none" xmlns="http://www.w3.org/2000/svg">
<path d="M34.5 4C34.5 1.8 32.7 0 30.5 0H26.5C25.4 0 24.5 0.9 24.5 2C24.5 3.1 25.4 4 26.5 4H30.5V9.3L23.54 18H16.5V10C16.5 8.9 15.6 8 14.5 8H8.5C4.08 8 0.5 11.58 0.5 16V22H4.5C4.5 25.32 7.18 28 10.5 28C13.82 28 16.5 25.32 16.5 22H25.46L34.5 10.7V4ZM10.5 24C9.4 24 8.5 23.1 8.5 22H12.5C12.5 23.1 11.6 24 10.5 24Z" fill="black"/>
<path d="M14.5 2H8.5C7.4 2 6.5 2.9 6.5 4C6.5 5.1 7.4 6 8.5 6H14.5C15.6 6 16.5 5.1 16.5 4C16.5 2.9 15.6 2 14.5 2Z" fill="black"/>
<path d="M34.5 16C31.18 16 28.5 18.68 28.5 22C28.5 25.32 31.18 28 34.5 28C37.82 28 40.5 25.32 40.5 22C40.5 18.68 37.82 16 34.5 16ZM34.5 24C33.4 24 32.5 23.1 32.5 22C32.5 20.9 33.4 20 34.5 20C35.6 20 36.5 20.9 36.5 22C36.5 23.1 35.6 24 34.5 24Z" fill="black"/>
</svg>
