<svg width="34" height="44" viewBox="0 0 34 44" fill="none" xmlns="http://www.w3.org/2000/svg">
<path d="M29.5922 0.02L9.59223 0C7.39223 0 5.59223 1.8 5.59223 4V10C5.59223 11.1 6.49223 12 7.59223 12C8.69223 12 9.59223 11.1 9.59223 10V8H29.5922V36H9.59223V34C9.59223 32.9 8.69223 32 7.59223 32C6.49223 32 5.59223 32.9 5.59223 34V40C5.59223 42.2 7.39223 44 9.59223 44H29.5922C31.7922 44 33.5922 42.2 33.5922 40V4C33.5922 1.8 31.7922 0.02 29.5922 0.02ZM15.5922 28C16.6922 28 17.5922 27.1 17.5922 26V16C17.5922 14.9 16.6922 14 15.5922 14H5.59223C4.49223 14 3.59223 14.9 3.59223 16C3.59223 17.1 4.49223 18 5.59223 18H10.7722L0.992227 27.78C0.212227 28.56 0.212227 29.82 0.992227 30.6C1.77223 31.38 3.03223 31.38 3.81223 30.6L13.5922 20.82V26C13.5922 27.1 14.4922 28 15.5922 28Z" fill="black"/>
</svg>
